{"title":"P!nk Ft. Lily Allen - True Love [Music Video] 720p [Sbyky]","uid":9188645,"size":68320065,"categoryP":"video","categoryS":"music_videos","magnet":"?xt=urn:btih:7c45c93164aca376d0ccddea5324d42321178d3f&amp;dn=P%21nk+Ft.+Lily+Allen+-+True+Love+%5BMusic+Video%5D+720p+%5BSbyky%5D&amp;tr=udp%3A%2F%2Ftracker.openbittorrent.com%3A80&amp;tr=udp%3A%2F%2Fopen.demonii.com%3A1337&amp;tr=udp%3A%2F%2Ftracker.coppersurfer.tk%3A6969&amp;tr=udp%3A%2F%2Fexodus.desync.com%3A6969","seeders":1,"leechers":1,"uploader":"Sbyky","files":1,"time":1384349018,"description":"[IMG]http://cdn.piczend.com/images/Xd9Is18z/1384277855_truelove.jpg[/IMG]\n\nGeneral\nComplete name                            : P!nk Ft. Lily Allen - True Love [Music Video] 720p [Sbyky].MP4\nFormat                                   : MPEG-4\nFormat profile                           : Base Media\nCodec ID                                 : isom\nFile size                                : 65.2 MiB\nDuration                                 : 3mn 52s\nOverall bit rate mode                    : Variable\nOverall bit rate                         : 2 353 Kbps\nEncoded date                             : UTC 2013-09-11 10:07:58\nTagged date                              : UTC 2013-09-11 10:07:58\n\nVideo\nID                                       : 1\nFormat                                   : AVC\nFormat/Info                              : Advanced Video Codec\nFormat profile                           : &lt;a class=&quot;__cf_email__&quot; href=&quot;/cdn-cgi/l/email-protection&quot; data-cfemail=&quot;aae7cbc3c4eae699849b&quot;&gt;[email&amp;#160;protected]&lt;/a&gt;&lt;script cf-hash='f9e31' type=&quot;text/javascript&quot;&gt;\n/* &lt;![CDATA[ */!function(){try{var t=&quot;currentScript&quot;in document?document.currentScript:function(){for(var t=document.getElementsByTagName(&quot;script&quot;),e=t.length;e--;)if(t[e].getAttribute(&quot;cf-hash&quot;))return t[e]}();if(t&amp;&amp;t.previousSibling){var e,r,n,i,c=t.previousSibling,a=c.getAttribute(&quot;data-cfemail&quot;);if(a){for(e=&quot;&quot;,r=parseInt(a.substr(0,2),16),n=2;a.length-n;n+=2)i=parseInt(a.substr(n,2),16)^r,e+=String.fromCharCode(i);e=document.createTextNode(e),c.parentNode.replaceChild(e,c)}}}catch(u){}}();/* ]]&gt; */&lt;/script&gt;\nFormat settings, CABAC                   : Yes\nFormat settings, ReFrames                : 3 frames\nCodec ID                                 : avc1\nCodec ID/Info                            : Advanced Video Coding\nDuration                                 : 3mn 52s\nBit rate                                 : 2 098 Kbps\nWidth                                    : 1 280 pixels\nHeight                                   : 720 pixels\nDisplay aspect ratio                     : 16:9\nFrame rate mode                          : Constant\nFrame rate                               : 25.000 fps\nColor space                              : YUV\nChroma subsampling                       : 4:2:0\nBit depth                                : 8 bits\nScan type                                : Progressive\nBits/(Pixel*Frame)                       : 0.091\nStream size                              : 58.0 MiB (89%)\nEncoded date                             : UTC 2013-09-11 10:07:58\nTagged date                              : UTC 2013-09-11 10:07:58\n\nAudio\nID                                       : 2\nFormat                                   : AAC\nFormat/Info                              : Advanced Audio Codec\nFormat profile                           : LC\nCodec ID                                 : 40\nDuration                                 : 3mn 52s\nBit rate mode                            : Variable\nBit rate                                 : 254 Kbps\nChannel(s)                               : 2 channels\nChannel positions                        : Front: L R\nSampling rate                            : 44.1 KHz\nCompression mode                         : Lossy\nDelay relative to video                  : -3s 600ms\nStream size                              : 7.02 MiB (11%)\nEncoded date                             : UTC 2013-09-11 10:07:43\nTagged date                              : UTC 2013-09-11 10:07:43\n\nShared By Sbyky\n[IMG]http://cdn.piczend.com/images/X3Ag13N3/1379453786_saythanks.gif[/IMG]\n[IMG]http://cdn.piczend.com/images/gGqhX2S8/1379453780_keepseeding.gif[/IMG]","torrent":{"xt":"urn:btih:7c45c93164aca376d0ccddea5324d42321178d3f","amp;dn":"P%21nk+Ft.+Lily+Allen+-+True+Love+%5BMusic+Video%5D+720p+%5BSbyky%5D","amp;tr":["udp%3A%2F%2Ftracker.openbittorrent.com%3A80","udp%3A%2F%2Fopen.demonii.com%3A1337","udp%3A%2F%2Ftracker.coppersurfer.tk%3A6969","udp%3A%2F%2Fexodus.desync.com%3A6969"],"infoHash":"7c45c93164aca376d0ccddea5324d42321178d3f","infoHashBuffer":{"type":"Buffer","data":[124,69,201,49,100,172,163,118,208,204,221,234,83,36,212,35,33,23,141,63]},"announce":[],"urlList":[]}}